<?xml version="1.0" encoding="utf-8"?>
<!-- Generator: Adobe Illustrator 19.1.0, SVG Export Plug-In . SVG Version: 6.00 Build 0)  -->
<svg version="1.1" id="Layer_1" xmlns="http://www.w3.org/2000/svg" xmlns:xlink="http://www.w3.org/1999/xlink" x="0px" y="0px"
	 viewBox="0 0 96.8 66.4" style="enable-background:new 0 0 96.8 66.4;" xml:space="preserve">
<style type="text/css">
	.st0{fill:#F1F1F1;}
</style>
<g>
	<g>
		<g>
			<path class="st0" d="M11.1,11.2l-0.2,0v-0.5l0.2-0.1c1.4-0.4,3.8-1.6,3.8-4.4c0-1.4-0.6-2.7-1.6-3.4c-1-0.7-2.4-1-4.6-1H0.9v0.4
				c2.5,0.2,2.8,0.6,2.8,3.2v12.8c0,2.7-0.3,3-3,3.3v0.4h6.6c2.6,0,4.5-0.4,6.1-1.2c1.9-1,2.9-2.6,2.9-4.6
				C16.2,13.3,14.5,11.8,11.1,11.2z M5.5,4.3c0-1.1,0.1-1.5,0.6-1.8c0.3-0.2,1.2-0.4,2-0.4c3.5,0,4.7,2.2,4.7,4.3
				c0,2.9-1.8,4.3-5.3,4.3h-2V4.3z M8.5,21.2c-2.3,0-3-0.7-3-3.1v-6.7h2c4.3,0,6.5,1.7,6.5,4.9C13.9,19.4,11.9,21.2,8.5,21.2z"/>
			<path class="st0" d="M35.5,20.2c-0.8,0.9-1.9,1-3.8,1c-1.6,0-2.7-0.1-3.3-0.4c-0.7-0.4-0.9-1.1-0.9-2.9V5.4
				c0-2.8,0.5-3.1,2.9-3.3V1.7h-7.7v0.4c2.5,0.2,2.9,0.5,2.9,3.3v12.7c0,2.8-0.5,3.1-2.9,3.3v0.4h13.8c0.3-1,0.8-3.4,1-4.5l-0.5-0.1
				C36.7,18.6,36.2,19.5,35.5,20.2z"/>
			<path class="st0" d="M57,20.1c-0.7,0.9-1.7,1.1-4.2,1.1c-1.7,0-2.8,0-3.5-0.5c-0.7-0.5-0.9-1.3-0.9-2.9v-6.2l0.3-0.1l6.5-0.5
				l-6.8-0.5V3.5c0-1.1,0.2-1.3,1.3-1.3h2.7c2.4,0,3.3,0.2,3.7,1.1c0.4,0.6,0.7,1.3,1,2.6l0.5-0.1c-0.1-1.5-0.2-3.3-0.2-4.1H43.7
				v0.4c2.5,0.2,2.8,0.5,2.8,3.3v5.3l-5.3,0.5l5.3,0.5v6.4c0,2.7-0.4,3.1-3.2,3.3v0.4h14.9c0.3-1,0.8-3.4,1-4.5l-0.5-0.1
				C58.2,18.4,57.6,19.5,57,20.1z"/>
			<path class="st0" d="M72.1,10.7l-0.2-0.1c-2.3-1.2-4.2-2.4-4.2-5c0-1.8,1.2-3.8,3.9-3.8c3,0,3.8,2.4,4.2,4.2l0.5-0.1
				c-0.1-0.7-0.2-1.3-0.2-1.8c-0.1-0.9-0.2-1.5-0.3-2.2c-1.4-0.5-2.6-0.7-3.7-0.7c-3.6,0-6.1,2.2-6.1,5.3c0,3.3,2.9,4.8,4.8,5.8
				l0.3,0.2c2.5,1.4,4.3,2.5,4.3,5.1c0,2.5-1.6,4.1-4.2,4.1c-3.1,0-4.6-2.7-5.3-5l-0.5,0.1c0.2,1.7,0.6,3.7,0.8,4.5
				c0.1,0,0.1,0.1,0.2,0.1c0.3,0.1,0.6,0.3,1.1,0.5c0.8,0.2,1.8,0.5,3.1,0.5c3.9,0,6.6-2.4,6.6-5.8C77.3,13.2,74.4,11.8,72.1,10.7z"
				/>
			<path class="st0" d="M90.7,10.7l-0.2-0.1c-2.3-1.2-4.2-2.4-4.2-5c0-1.8,1.2-3.8,3.9-3.8c3,0,3.8,2.4,4.2,4.2l0.5-0.1
				c-0.1-0.7-0.2-1.3-0.2-1.8c-0.1-0.9-0.2-1.5-0.3-2.2c-1.4-0.5-2.6-0.7-3.7-0.7c-3.6,0-6.1,2.2-6.1,5.3c0,3.3,2.9,4.8,4.8,5.8
				l0.3,0.2c2.5,1.4,4.3,2.5,4.3,5.1c0,2.5-1.6,4.1-4.2,4.1c-3.1,0-4.6-2.7-5.3-5L84,16.8c0.2,1.8,0.6,3.7,0.8,4.5
				c0.1,0,0.1,0.1,0.2,0.1c0.3,0.1,0.6,0.3,1.1,0.5c0.8,0.2,1.8,0.5,3.1,0.5c3.9,0,6.6-2.4,6.6-5.8C95.8,13.2,93,11.8,90.7,10.7z"/>
		</g>
		<g>
			<path class="st0" d="M71.6,37.7c-0.3,0.8-0.7,1.6-1.1,2c-0.5,0.6-1.2,0.8-3,0.8c-1.2,0-2,0-2.5-0.3c-0.5-0.3-0.7-0.9-0.7-2v-4.4
				l0.2,0l4.6-0.3l-4.8-0.3V28c0-0.8,0.1-0.9,0.9-0.9h1.9c1.7,0,2.3,0.2,2.6,0.7c0.3,0.5,0.5,0.9,0.7,1.8l0.3,0
				c-0.1-1-0.1-2.3-0.2-2.9h-9.6V27c1.7,0.2,2,0.4,2,2.4v3.7l-3.7,0.3l3.7,0.3v4.5c0,1.9-0.3,2.2-2.3,2.4v0.3h10.5
				c0.2-0.7,0.6-2.4,0.7-3.2L71.6,37.7z"/>
			<path class="st0" d="M36.3,26.1c-0.3,0.4-0.5,0.5-1.2,0.5h-8.8c-0.6,0-1-0.1-1.3-0.5h-0.2c0,0.7-0.1,1.6-0.2,2.4
				c0,0.4-0.1,0.8-0.1,1.2h0.3c0.2-0.9,0.4-1.5,0.7-1.9c0.3-0.6,0.9-0.7,2.6-0.7h1.8v11.2c0,1.9-0.3,2.2-2.3,2.3v0.3h6v-0.3
				c-2.1-0.1-2.4-0.4-2.4-2.3V27.1h1.9c1.7,0,2.1,0.1,2.5,0.8c0.3,0.4,0.4,0.9,0.6,1.8l0.3-0.1c-0.1-1-0.2-2.4-0.2-3.5H36.3z"/>
			<path class="st0" d="M57.8,33.4L54,33.1v-3.8c0-1.9,0.3-2.1,2.1-2.3v-0.3h-5.3V27c1.7,0.2,2,0.4,2,2.3v3.8h-8.3v-3.8
				c0-1.9,0.3-2.1,1.9-2.3v-0.3H41V27c1.8,0.2,2.1,0.4,2.1,2.3v3.8l-3.9,0.3l3.9,0.3v4.6c0,1.9-0.3,2.1-2.1,2.2v0.3h5.4v-0.3
				c-1.8-0.1-2.1-0.4-2.1-2.2v-4.6h8.3v4.6c0,1.9-0.3,2.1-2.1,2.2v0.3h5.5v-0.3c-1.7-0.1-2.1-0.3-2.1-2.2v-4.6L57.8,33.4z"/>
		</g>
		<g>
			<path class="st0" d="M22.5,45.4H9.1v0.4c2.4,0.2,2.8,0.6,2.8,3.3v12.7c0,2.8-0.4,3.1-2.9,3.3v0.4h8v-0.4
				c-2.8-0.2-3.3-0.5-3.3-3.3v-6.5h3.7c2.8,0,3.2,0.4,3.7,2.6h0.5v-5.7h-0.5c-0.4,2.1-0.8,2.4-3.7,2.4h-3.7v-7.3
				c0-1,0.2-1.3,1.3-1.3h2.7c2.3,0,3.2,0.2,3.7,1.2c0.4,0.7,0.6,1.2,0.8,2.4l0.5,0l0-0.4C22.7,47.9,22.6,46.5,22.5,45.4z"/>
			<path class="st0" d="M43,61.8c-0.7-1.9-1.4-4-2.2-6l-0.1-0.4L46,55l-5.6-0.4L39.5,52c-0.9-2.4-1.7-4.8-2.5-7l-0.6,0.2l-3.7,9.4
				L27.8,55l4.6,0.4l-2.5,6.2c-1.1,2.8-1.6,3.2-3.6,3.5v0.4h6.5v-0.4c-1.2-0.1-1.9-0.3-2.2-0.8c-0.3-0.5-0.2-1.2,0.2-2.2
				c0.2-0.6,0.4-1.3,0.6-1.9c0.2-0.7,0.5-1.4,0.7-2l1.1-2.8h5.5l0.5,1.4l0.5,1.5l1.7,4.8c0.2,0.6,0.3,1,0,1.3
				c-0.3,0.4-0.8,0.6-2,0.7v0.4h7.1v-0.4C44.5,64.9,43.9,64.5,43,61.8z M33.4,54.6l0.7-1.9c0.5-1.4,1-2.8,1.5-4.3l0.1-0.2h0.5
				l2.2,6.4H33.4z"/>
			<path class="st0" d="M64.6,64c-0.8,0.9-1.9,1-3.8,1c-1.6,0-2.7-0.1-3.3-0.4c-0.7-0.4-0.9-1.1-0.9-2.9V49.1c0-2.8,0.5-3.1,2.9-3.3
				v-0.4h-7.7v0.4c2.5,0.2,2.9,0.5,2.9,3.3v12.7c0,2.8-0.5,3.1-2.9,3.3v0.4h13.8c0.3-1,0.8-3.4,1-4.5L66.2,61
				C65.8,62.3,65.2,63.3,64.6,64z"/>
			<path class="st0" d="M87,61c-0.5,1.3-1,2.3-1.6,2.9c-0.8,0.9-1.9,1-3.8,1c-1.6,0-2.7-0.1-3.3-0.4c-0.7-0.4-0.9-1.1-0.9-2.9V49.1
				c0-2.8,0.5-3.1,2.9-3.3v-0.4h-7.7v0.4c2.5,0.2,2.9,0.5,2.9,3.3v12.7c0,2.8-0.5,3.1-2.9,3.3v0.4h13.8c0.3-1,0.8-3.4,1-4.5L87,61z"
				/>
		</g>
	</g>
</g>
</svg>
