<?xml version="1.0" encoding="utf-8"?>
<!-- Generator: Adobe Illustrator 19.1.0, SVG Export Plug-In . SVG Version: 6.00 Build 0)  -->
<svg version="1.1" id="Layer_1" xmlns="http://www.w3.org/2000/svg" xmlns:xlink="http://www.w3.org/1999/xlink" x="0px" y="0px"
	 viewBox="0 0 260.4 163.6" style="enable-background:new 0 0 260.4 163.6;" xml:space="preserve">
<style type="text/css">
	.st0{fill:#F4F4F4;}
</style>
<g>
	<g>
		<path class="st0" d="M123.3,11.4c-0.4-2.1-0.8-3.1-1.3-3.8c-0.7-1-1.3-1.3-4.6-1.3h-3.3v21.3c0,3.4,0.3,3.8,4.6,4.1V33h-12.3v-1.4
			c4.1-0.2,4.4-0.6,4.4-4.1V6.3h-3.1c-3.3,0-4.2,0.3-4.7,1.3c-0.5,0.7-0.8,1.9-1.3,3.8h-1.4c0.2-2.5,0.4-5.3,0.5-7.7h0.9
			c0.6,1,1.2,1.1,2.4,1.1h17.1c1.1,0,1.4-0.3,2-1.1h1c0,2,0.2,5.1,0.4,7.5L123.3,11.4z"/>
		<path class="st0" d="M147.9,4.1c7.2,0,13.9,5.7,13.9,14.5c0,9.5-6.6,15.2-14.5,15.2c-7.5,0-13.9-6-13.9-14.5
			C133.3,11.3,138.9,4.1,147.9,4.1L147.9,4.1z M146.8,5.8c-4.7,0-9.4,3.9-9.4,12.2c0,8.2,4.7,14,10.8,14c4.9,0,9.4-3.9,9.4-12.3
			C157.6,10.5,152.6,5.8,146.8,5.8L146.8,5.8z"/>
		<path class="st0" d="M56.2,49.6c-0.6-2.8-1-4.2-1.7-5.2c-0.9-1.4-1.8-1.8-6.2-1.8h-4.5v28.9c0,4.7,0.5,5.2,6.2,5.5V79H33.2v-1.8
			c5.5-0.3,6-0.8,6-5.5V42.7h-4.2c-4.5,0-5.7,0.4-6.4,1.7c-0.7,1-1.1,2.6-1.8,5.2h-1.9c0.2-3.5,0.6-7.2,0.7-10.5h1.3
			c0.9,1.3,1.6,1.4,3.2,1.4h23.2c1.6,0,1.9-0.3,2.8-1.4h1.4c0,2.8,0.3,7,0.6,10.2L56.2,49.6z"/>
		<path class="st0" d="M110.2,42.3c-4.9,0.4-5.5,0.6-5.5,5.5v23.9c0,4.9,0.6,5,5.5,5.4V79H94.5v-1.8c5.2-0.4,5.7-0.6,5.7-5.4V60
			H79.5v11.7c0,4.8,0.5,5,5.4,5.4V79H69.5v-1.8c4.9-0.4,5.4-0.5,5.4-5.4V47.8c0-4.9-0.5-5.1-5.5-5.5v-1.8h15.2v1.8
			c-4.6,0.4-5.1,0.7-5.1,5.5v9.5h20.7v-9.5c0-4.8-0.4-5.1-5.2-5.5v-1.8h15.2V42.3z"/>
		<path class="st0" d="M141.8,39.6c9.8,0,18.9,7.7,18.9,19.7c0,12.9-8.9,20.7-19.8,20.7c-10.2,0-19-8.2-19-19.7
			C122,49.5,129.6,39.6,141.8,39.6L141.8,39.6z M140.4,41.9c-6.4,0-12.8,5.3-12.8,16.6c0,11.1,6.4,19.1,14.7,19.1
			c6.7,0,12.8-5.3,12.8-16.8C155.1,48.3,148.2,41.9,140.4,41.9L140.4,41.9z"/>
		<path class="st0" d="M193,49.5c-1-3.7-2.2-7.8-7.5-7.8c-4.8,0-6.6,3.5-6.6,6.5c0,4.5,3,6.6,7.4,8.9c4.3,2.1,10.2,4.8,10.2,11.6
			c0,6.4-5.2,11.2-12.9,11.2c-2.5,0-4.5-0.6-5.8-1c-1.3-0.4-2.2-0.9-2.8-1.2c-0.5-1.3-1.2-6-1.6-9.1l1.9-0.4c1,3.6,3.4,9.4,9.4,9.4
			c4.6,0,7.2-2.8,7.2-7.1c0-4.6-3.3-6.6-7.7-9c-3.5-1.8-9.7-4.7-9.7-11.5c0-5.6,4.5-10.4,11.9-10.4c2.3,0,4.7,0.5,7.4,1.4
			c0.2,2.1,0.5,4.3,1,8.2L193,49.5z"/>
		<path class="st0" d="M238.1,69.6c-0.3,1.8-1.5,7.6-2,9.4h-28.5v-1.8c5.4-0.4,6-0.8,6-5.7V48.1c0-5.2-0.5-5.3-5.2-5.7v-1.8h26.3
			c0.1,1.3,0.3,5.5,0.5,8.7l-1.9,0.2c-0.5-2.6-1-3.8-1.8-5.1c-0.7-1.3-2.2-1.7-6.4-1.7h-5.1c-1.8,0-1.9,0.2-1.9,1.8v13.3h5.8
			c5.3,0,5.6-0.5,6.3-4.5h1.9v11.3h-1.9c-0.8-4.2-1.1-4.5-6.3-4.5H218v11c0,2.8,0.5,4.1,1.5,4.9c1.2,0.8,3.2,0.8,6.3,0.8
			c4.5,0,6.2-0.5,7.5-2c1-1,2.2-3.1,2.9-5.5L238.1,69.6z"/>
		<path class="st0" d="M96.9,108c-0.3,1.3-1.2,5.5-1.6,6.8H75.7v-1.4c3.6-0.2,4-0.5,4-4.2V92c0-3.6-0.3-3.8-4-4.1v-1.3H87v1.3
			c-3.5,0.3-4,0.5-4,4.1v17c0,2.4,0.3,3.2,1.1,3.7c0.8,0.5,2.4,0.6,4.3,0.6c2.4,0,3.8-0.2,4.8-1.3c0.8-0.9,1.6-2.2,2.2-4.2L96.9,108
			z"/>
		<path class="st0" d="M126.8,107.9c-0.2,1.3-1.1,5.6-1.5,6.9h-21v-1.3c4-0.3,4.4-0.6,4.4-4.2V92.1c0-3.8-0.4-3.9-3.8-4.2v-1.3h19.3
			c0,1,0.2,4,0.4,6.4l-1.4,0.2c-0.4-1.9-0.8-2.8-1.4-3.7c-0.5-0.9-1.6-1.2-4.7-1.2h-3.7c-1.3,0-1.4,0.1-1.4,1.4v9.8h4.3
			c3.9,0,4.1-0.4,4.6-3.3h1.4v8.3h-1.4c-0.6-3.1-0.8-3.3-4.6-3.3H112v8.1c0,2,0.3,3,1.1,3.6c0.8,0.6,2.3,0.6,4.6,0.6
			c3.3,0,4.5-0.3,5.5-1.4c0.7-0.8,1.6-2.2,2.1-4L126.8,107.9z"/>
		<path class="st0" d="M153.4,93.2c-0.4-1.8-0.6-2.6-1.2-3.5c-0.6-1.2-1.5-1.5-4.7-1.5h-3.7c-1.3,0-1.4,0.1-1.4,1.3v10.3h4.6
			c3.9,0,4.1-0.3,4.7-3.2h1.4v8.4h-1.4c-0.6-3.1-0.8-3.5-4.7-3.5h-4.6v7.8c0,3.7,0.4,3.9,4.5,4.2v1.4h-11.7v-1.4
			c3.5-0.2,3.9-0.5,3.9-4.2V92c0-3.7-0.4-3.8-3.8-4.1v-1.3h19c0,1.7,0.3,4.4,0.4,6.5L153.4,93.2z"/>
		<path class="st0" d="M186.1,93.2c-0.4-2.1-0.8-3.1-1.3-3.8c-0.7-1-1.3-1.3-4.6-1.3H177v21.3c0,3.4,0.3,3.8,4.6,4.1v1.4h-12.3v-1.4
			c4.1-0.2,4.4-0.6,4.4-4.1V88.1h-3.1c-3.3,0-4.2,0.3-4.7,1.3c-0.5,0.7-0.8,1.9-1.3,3.8h-1.4c0.2-2.5,0.4-5.3,0.5-7.7h0.9
			c0.6,1,1.2,1.1,2.4,1.1h17.1c1.1,0,1.4-0.3,2-1.1h1c0,2,0.2,5.1,0.4,7.5L186.1,93.2z"/>
		<path class="st0" d="M24.4,139.9c5.5,1,10,3.5,10,9.4c0,4-2.1,7.1-5.7,9.1c-3.1,1.7-6.9,2.4-11.5,2.4H4.4V159
			c5.3-0.4,5.6-0.7,5.6-5.5v-23.8c0-4.8-0.2-5.1-5.1-5.5v-1.8h15c4.5,0,6.9,0.7,8.8,2c2.1,1.5,3.2,4.1,3.2,6.8
			C31.9,136.7,27.2,139,24.4,139.9L24.4,139.9z M17.6,139.2c6.4,0,9.3-2.5,9.3-7.5c0-3.8-2.2-7.4-8.2-7.4c-1.5,0-3,0.3-3.5,0.6
			c-0.6,0.4-0.8,1-0.8,2.9v11.4H17.6z M14.4,153.4c0,4.2,1,5.3,5,5.3c5.2-0.1,9.6-2.4,9.6-8.6c0-6.2-4.4-8.6-11.5-8.6h-3.1V153.4z"
			/>
		<path class="st0" d="M76.6,151.4c-0.3,1.8-1.5,7.6-2,9.4H46V159c5.4-0.4,6-0.8,6-5.7v-23.4c0-5.2-0.5-5.3-5.2-5.7v-1.8h26.3
			c0.1,1.3,0.3,5.5,0.5,8.7l-1.9,0.2c-0.5-2.6-1-3.8-1.8-5.1c-0.7-1.3-2.2-1.7-6.4-1.7h-5.1c-1.8,0-1.9,0.2-1.9,1.8v13.3h5.8
			c5.3,0,5.6-0.5,6.3-4.5h1.9v11.3h-1.9c-0.8-4.2-1.1-4.5-6.3-4.5h-5.8v11c0,2.8,0.5,4.1,1.5,4.9c1.2,0.8,3.2,0.8,6.3,0.8
			c4.5,0,6.2-0.5,7.5-2c1-1,2.2-3.1,2.9-5.5L76.6,151.4z"/>
		<path class="st0" d="M128.5,124.1c-4.9,0.4-5.5,0.6-5.5,5.5v23.9c0,4.9,0.6,5,5.5,5.4v1.8h-15.7V159c5.2-0.4,5.7-0.6,5.7-5.4
			v-11.7H97.8v11.7c0,4.8,0.5,5,5.4,5.4v1.8H87.9V159c4.9-0.4,5.4-0.5,5.4-5.4v-23.9c0-4.9-0.5-5.1-5.5-5.5v-1.8h15.2v1.8
			c-4.6,0.4-5.1,0.7-5.1,5.5v9.5h20.7v-9.5c0-4.8-0.4-5.1-5.2-5.5v-1.8h15.2V124.1z"/>
		<path class="st0" d="M140.5,160.8V159c4.9-0.3,5.5-0.6,5.5-5.7v-23.5c0-5-0.5-5.2-5.5-5.6v-1.8h15.4v1.8c-4.9,0.4-5.4,0.6-5.4,5.6
			v23.5c0,5.1,0.6,5.3,5.4,5.7v1.8H140.5z"/>
		<path class="st0" d="M208.5,124.1c-3.3,0.2-4.9,0.9-5.3,3.3c-0.1,1.8-0.2,4.5-0.2,10.2v23.6h-1.9l-24.9-30.9h-0.1v14.8
			c0,5.3,0.2,8.2,0.2,10c0.4,3,1.8,3.7,5.8,3.9v1.8h-14.2V159c3.4-0.1,4.9-0.9,5.3-3.8c0.2-1.9,0.4-4.8,0.4-10.1v-13
			c0-4.3-0.1-4.3-1.2-5.8c-1.2-1.4-2.6-1.8-5.4-2.1v-1.8h8.5l24.7,30.2h0.2v-14.8c0-5.7-0.2-8.3-0.3-9.9c-0.4-2.7-1.8-3.4-5.9-3.6
			v-1.8h14.4V124.1z"/>
		<path class="st0" d="M236.2,122.3c7.6,0,13.1,1.4,16.7,5c2.9,2.8,5,7.2,5,12.8c0,7-2.7,12.4-7.2,15.8c-4.5,3.4-10.2,4.9-17.4,4.9
			h-13.9V159c5.2-0.3,5.7-0.6,5.7-5.6v-23.6c0-5-0.5-5.2-5.1-5.6v-1.8H236.2z M229.6,152.9c0,4.5,2,5.6,6.5,5.6
			c11.5,0,16.6-8.4,16.6-17.7c0-5.9-2.3-11.3-7.3-14.2c-2.7-1.6-6.2-2.2-10-2.2c-2.8,0-4.4,0.3-4.9,0.8c-0.6,0.5-0.8,1-0.8,3.3
			V152.9z"/>
	</g>
</g>
</svg>
